<svg width="40" height="40" viewBox="0 0 40 40" fill="none" xmlns="http://www.w3.org/2000/svg">
<path d="M11.2814 8.67188C17.512 8.67188 22.5624 13.7576 22.5624 20.0307C22.5624 26.3038 17.5116 31.3891 11.2814 31.3891C5.05122 31.3891 0 26.3038 0 20.0307C0 13.7576 5.05083 8.67188 11.2814 8.67188ZM29.297 9.33725C32.4123 9.33725 34.9377 14.1244 34.9377 20.0307H34.9381C34.9381 25.9355 32.4126 30.7241 29.2974 30.7241C26.1821 30.7241 23.6567 25.9355 23.6567 20.0307C23.6567 14.1259 26.1817 9.33725 29.297 9.33725ZM38.0162 10.451C39.1116 10.451 40 14.7399 40 20.0307C40 25.3199 39.1119 29.6103 38.0162 29.6103C36.9204 29.6103 36.0327 25.3211 36.0327 20.0307C36.0327 14.7403 36.9207 10.451 38.0162 10.451Z" fill="#C1C1C1"/>
</svg>
